<svg height="833pt" viewBox="0 0 833 833" width="833pt" xmlns="http://www.w3.org/2000/svg"><path d="M216.8 45.5c-.1.2-3 .6-6.3.9s-7.1.8-8.5 1c-1.4.3-4.3.7-6.5 1s-4.7.7-5.5.9-3.4.8-5.8 1.2c-2.3.4-4.5 1.1-4.8 1.6-.2.4-1.1.6-1.9.3s-2-.2-2.7.2c-.7.5-2.1 1-3 1.1-2.4.4-20.3 6.6-26.8 9.3-15.7 6.6-33 16.8-48.5 28.4-8.2 6.2-28.3 25.7-34.5 33.4-1.9 2.4-4.3 5.4-5.4 6.5-3 3.6-16.3 23.8-19.1 29.2-1.4 2.7-3.4 6.3-4.4 8-1 1.6-1.6 3.3-1.4 3.7.2.5-.1.8-.6.8-.6 0-1.1.4-1.1 1 0 .5-1.4 3.8-3 7.2-1.7 3.4-3 6.5-3 7 0 .4-.9 2.7-1.9 5.1C16.7 205.2 7 239.1 5.4 252c-.3 1.9-.7 4.6-.9 6-1 4.8-2 13.1-3.2 25-.9 8.6-.8 57.3 0 67 .8 8.8 1.5 14.8 2.1 19 .3 1.9.8 5.3 1.1 7.5.4 3.4 1.2 8.2 3 18 2 11.3 10.4 45.3 12.8 51.5.8 2.1 4.7 14.2 5.1 16 .5 1.9 7.4 20.6 8.8 24 .6 1.4 1.7 3.8 2.4 5.5.7 1.6 3 6.8 5 11.5 6.8 16 24.9 51.2 26.5 51.8.5.2.9.8.9 1.3s1.2 2.8 2.7 5.2c1.4 2.3 2.6 4.3 2.5 4.4-.1.2 2.7 4.6 6.3 9.9s6.5 10 6.5 10.4.9 1.5 2 2.5 2 2.4 2 3.1.3 1.4.8 1.6c.4.1 2.3 2.5 4.2 5.3 1.9 2.7 3.8 5.4 4.2 6 6.3 8.2 16.5 21.3 17.3 22.1.5.7 2.6 3.1 4.5 5.5 15.5 19.4 45.7 49.1 67.9 66.9 2.4 1.9 4.9 4.1 5.6 4.8.8.6 1.8 1.2 2.3 1.2.6 0 1.2.3 1.4.7.5 1.4 9.6 8.3 10.7 8.3.6 0 1.1.3 1.1.8 0 .4 1.8 1.8 4 3.2s4 2.8 4 3.2c0 .5.6.8 1.3.8s2.2.8 3.3 1.7c1.1 1 2.9 2.3 4 3 15.6 9.6 25 15.1 25.5 15 .4-.1 1.5.5 2.5 1.4 2.2 1.8 29.1 15 34.7 17 2 .7 3.7 1.7 3.7 2.3 0 .5.3.7.6.4s4 .8 8.2 2.4c20.2 7.9 47.8 15.5 66.2 18.2 1.9.3 4.4.8 5.6 1 9.3 1.9 59.2 2.8 73.4 1.3 4.7-.5 13.4-1.8 15-2.2.3 0 2.6-.4 5.1-.8 9.2-1.5 11.1-1.9 23.8-5.2 12.3-3.1 31.1-9.3 43-14.2 4.7-1.9 9.2-3.5 9.9-3.6.6 0 1.2-.4 1.2-.9 0-.4.5-.8 1.1-.8 2.2 0 31-14.8 44.4-22.9 18.4-11 42.8-28.4 56.5-40.1 1.9-1.7 4.6-3.9 6-5.1 9.1-7.5 31.5-29.3 42.7-41.5 7.2-7.9 14.7-16.6 16.1-18.6.9-1.3 2.3-3 3.2-3.8s4.5-5.3 8-10 6.8-8.7 7.2-8.8c.4-.2.8-.8.8-1.3 0-.6.5-1.5 1-2.2.6-.7 2.8-3.7 5-6.7s4.4-6.1 5.1-6.8c.6-.7 1.6-2.3 2.3-3.5 1.7-3.2 4.9-8 6.3-9.5.6-.6 1.5-2.1 1.8-3.2s1.1-2 1.7-2 .8-.3.5-.7c-.4-.3-.1-1.3.6-2.2 2.3-2.7 8.3-12.9 15.4-26.1 9.3-17.3 12.4-23.6 21.4-43.5 3.6-8 12.5-30.9 13.4-34.5.3-.8 1.8-5.6 3.5-10.5 1.7-5 3.2-9.9 3.4-11s.9-3.2 1.5-4.8c.6-1.5 1.3-3.8 1.6-5 .2-1.2.9-4 1.5-6.2 1.9-7.2 2.1-8 2.6-10.5.3-1.4.9-4.1 1.4-6s1.2-5.1 1.5-7c.4-1.9.8-4 .9-4.5.3-1 1.5-7.2 2.2-11 .2-1.1.7-4 .9-6.5.3-2.5 1-7 1.5-10 .8-5.1 1.2-7.9 2.7-23.9.7-7.9.7-57.3-.1-65.1-1.4-14.1-3.4-28.8-4.1-30-.1-.3-.6-2.5-.9-5s-1-6-1.5-7.8c-.5-1.7-.8-3.2-.5-3.2s0-.8-.5-1.8c-.5-.9-1.1-3.2-1.4-5-1.5-9.3-10.6-35.5-17.9-51.2-1.6-3.6-2.9-6.5-2.7-6.5.1 0-1-1.9-2.4-4.2-1.5-2.4-2.7-4.5-2.7-4.7 0-.6-8.3-15-9-15.6-.3-.3-2.3-3.2-4.5-6.5-2.1-3.3-4.1-6.2-4.5-6.5-.3-.3-1.9-2.3-3.6-4.5-4.9-6.8-8.4-10.6-19.9-22C745.1 98.2 729.1 85 727.1 85c-.5 0-1.1-.4-1.3-.9-1-2.6-37.9-22.5-43.6-23.4-.9-.2-2.7-.8-3.9-1.5s-3-1.3-4-1.5-5.4-1.5-9.8-2.9c-7.3-2.4-20.1-5.4-26.5-6.3-1.4-.2-4.1-.6-6-1-14.8-2.6-58.3-2.6-72.1 0-1.3.3-4.4.7-6.9 1-11.4 1.4-44.3 9.4-51.5 12.5-1.1.5-4.9 1.9-8.5 3.1-18.4 6.2-50.8 21.6-65.7 31.2-2.4 1.5-4.6 2.7-5 2.7-.5 0-1.9.9-3.2 1.9-2.4 1.8-2.4 1.8-11-3.4-4.7-2.9-10.6-6.2-13.1-7.5-2.5-1.2-4.8-2.7-5.1-3.2s-.9-.9-1.3-.9c-.3.1-5.7-2.3-11.9-5.3-6.1-3-14.1-6.6-17.7-8.1-3.6-1.4-7.8-3.2-9.5-4-1.6-.7-9.1-3.3-16.5-5.8-11.7-3.9-15.6-5.1-20.5-6.2-.5-.2-4.6-1.2-8.9-2.3-4.4-1.2-8.3-1.9-8.8-1.6-.4.3-.8.1-.8-.3 0-.5-.8-.9-1.7-1-2.4-.2-7.8-1-7.8-1.2 0-.1-1.8-.4-4-.6s-5.1-.7-6.5-1c-6.6-1.4-56-3.2-57.2-2zm43.7 74.9c2.2.3 5.1.8 6.5 1.1s4.3.7 6.5 1.1c2.2.3 5.8 1 8 1.6 2.2.5 4.9 1.2 6 1.4s6.1 1.5 11 3c5 1.4 9.6 2.6 10.3 2.6.6.1 1.2.5 1.2 1 0 .4.8.8 1.8.8 2.3 0 16.1 5.6 29.9 12l10.7 5.1-12.9 12.7c-24.2 23.7-38.4 40.4-62.2 72.7-4.5 6.1-11.3 16.6-11.3 17.4 0 .6-.4 1.1-.9 1.1s-1.6 1.5-2.5 3.2c-.9 1.8-3.9 6.8-6.6 11.1-2.8 4.3-5 8-5 8.1s-2.7 5.1-6 10.9c-6.8 12.3-19 37-19 38.6 0 .6-.5 1.1-1 1.1-.6 0-.9.3-.8.7.2.5-2 6.4-4.8 13.3-6.4 15.6-6.7 16.3-6.9 17.2-.2.5-.4 1-.5 1.3s-.3.8-.5 1.2c-.1.5-.6 1.9-1.2 3.3-1.1 2.5-9.4 28.5-9.4 29.5 0 .2-.5 1.9-1 3.7-.6 1.8-1.2 4.2-1.4 5.2-.3 1-.9 3.3-1.5 5-.5 1.7-1.1 4.3-1.2 5.8-.1 1.6-.5 2.8-.9 2.8-.3 0-.6.6-.6 1.2 0 .7-.5 3.8-1.2 6.8-1.2 5.8-1.8 8.9-2.6 13-.2 1.4-.7 3.6-.9 5-.3 1.4-.8 4.3-1.1 6.5s-1 6.8-1.5 10.2c-.6 3.4-1.2 8.8-1.5 12s-.8 8.7-1.2 12.3c-.9 8.2-.9 60 0 66 .4 2.5.9 6.7 1.1 9.5.6 5.9 1.4 11.6 2.3 16.5.3 1.9.7 4.2.8 5s.5 2.8.9 4.5c.6 2.9 1.2 5.7 2 10.2.3 1.3.7 2.7 1.1 3.3.3.5.2 1-.3 1-.4 0-2.8-2.3-5.3-5.2-2.4-2.9-5.3-6.1-6.4-7.2-1.1-1.2-3.4-3.9-5-6.1-1.7-2.2-4.2-5.4-5.7-7-1.6-1.7-2.8-3.3-2.8-3.6s-1.1-1.9-2.5-3.5c-1.5-1.6-3.3-4.1-4.3-5.7-.9-1.5-2-2.7-2.4-2.7s-.8-.7-.8-1.5-.4-1.5-1-1.5c-.5 0-1-.6-1-1.4s-.4-1.6-.8-1.8c-1.1-.4-11.2-15.6-11.2-16.8 0-.5-.4-1-.8-1.2-1.2-.4-13.7-21.9-21-35.8-15.1-29.1-28.9-65.7-36.2-96-1.5-5.9-5.1-23.3-5.6-26.5-.3-1.7-.9-5.3-1.3-8-.5-2.8-.9-5.9-.9-7s-.3-3.4-.6-5c-2.7-14-2.7-61.9-.1-77.7.2-1.3.6-4.1 1-6.3.3-2.2.8-5.6 1.2-7.5.3-1.9.8-4.4.9-5.5s.3-2 .4-2c.2 0 .5-1.5 1.3-5 1.6-8.1 8.7-29.8 9.9-30.6.5-.3.9-.8.7-1-.7-1.1 4.5-13 10.1-22.8 3.7-6.6 14.4-22.1 15.2-22.1.4 0 .8-.5.8-1.2 0-2.2 21.6-22.3 30.6-28.4 7.5-5.1 20.8-12.2 28.9-15.6 4.3-1.8 13.5-4.7 13.5-4.3 0 .3 1.2 0 2.8-.6 3.1-1.3 4.3-1.5 17.7-3.8 9.8-1.7 38.8-2.1 49-.7zm357 0c2.8.3 6.1.8 7.5 1.1s3.6.8 5 1.1 3.8.8 5.4 1c4.4.8 19.4 5.9 25.1 8.5 2.8 1.3 5.2 2.3 5.5 2.4.3 0 2.1 1 4.1 2.3 2 1.2 4 2.2 4.4 2.2s3 1.6 5.6 3.5c2.7 1.9 5.3 3.5 5.8 3.5s1.1.3 1.3.7c.2.5 2.6 2.6 5.3 4.7 8.3 6.6 19.2 18 26.1 27.3 3.5 4.8 7.1 9.7 7.9 10.8.9 1.1 4.6 8.3 8.5 16 8.8 17.8 16.4 40.5 18.6 55.5.3 1.9.7 4.2.9 5 .3.8.7 3.3 1 5.5s.7 5 .9 6.3c1.2 6 2 22.5 2 40.2-.1 20.3-.8 30.9-2.9 45-.4 2.5-.8 5.6-1 7-.4 3.1-1.5 9.5-2.1 12.4-.3 1.1-.7 3.2-1 4.6-4.7 24.8-15.4 58.1-27.3 85.3-18.8 42.9-50.5 91.8-80.3 124.2l-3.8 4 1-3.5c1-3.6 2-8.9 2.5-12.7.2-1.2.5-2.5.8-3 .3-.4.8-3.3 1.1-6.4.4-3.1.9-6.7 1.2-8 .5-2.4.7-4.4 2.1-20.4 1.5-16.1.8-57-1.1-74-.3-2.2-.8-6.5-1.1-9.5-.8-7.2-1.6-12.3-4.1-26-1.2-6.8-4.4-20.6-7.9-35-2.9-11.8-14.7-47.2-18.5-55.5-.5-1.1-2.9-6.7-5.4-12.5-2.4-5.8-6-14-8-18.3-2-4.2-3.6-8-3.5-8.3 0-.4-.3-1-.8-1.3-.4-.3-2.2-3.3-4-6.6-2.3-4.5-4.1-6.5-7.2-8.2-5.3-2.8-8.6-2-19.1 4.3-4.5 2.7-9 5.3-10.1 5.9-1 .5-1.9 1.3-1.9 1.7 0 .5-.5.8-1 .8-.6 0-2.3.8-3.8 1.9-3 2-15.6 10-18.3 11.6-1.9 1.1-11.7 7.1-15.5 9.5-33.5 21.1-52.1 32.6-53.1 32.8-.7.2-1.3.8-1.3 1.3s-.5.9-1 .9c-.6 0-2.3.9-3.8 1.9s-14.7 9.4-29.3 18.5c-22.1 13.7-27 17.2-28.3 20-2.9 6.2-2.1 9.8 4.7 20.7 5.5 8.8 11.3 18.1 12.2 19.7 6.1 10.3 10.6 16 14.1 17.7 2.2 1.1 4.4 1.8 4.9 1.6.6-.2 2.2-.4 3.6-.6 1.5-.2 7.9-3.7 14.3-7.7s12.8-8 14.1-8.8c4.8-2.9 63.1-39.3 68-42.5 10.8-6.9 16.6-10.5 16.9-10.5s1 1.9 2 5c.1.3.4 1 .8 1.6s.9 2.1 1.2 3.5c.2 1.3 1.3 5.3 2.4 8.9s2.3 7.8 2.8 9.5c.4 1.6.8 3.2.9 3.5 1.9 5.7 5.5 23.2 8 38 .3 1.9.8 5.5 1.1 8s.7 5.6 1 7c2.9 15.9 2.2 69.3-1.1 83.7-.3 1.2-.7 4.1-1 6.5-.6 4.3-6 26.9-7.2 29.8-.3.8-.7 1.9-.8 2.5-.3 1.1-4.2 11.6-5.8 15.5-.6 1.4-1 2.8-.9 3.2.1.5-.3.8-.9.8-.5 0-.8.4-.4.9.3.5.1 1.2-.4 1.6-.5.3-2.1 3.1-3.5 6.1-9.9 21.7-30.8 45.9-51.2 59.7-5.5 3.7-10.6 6.7-11.2 6.7-.7 0-1.2.4-1.2 1 0 .5-.5 1-1.1 1s-3.9 1.3-7.3 2.9c-6.9 3.2-15.2 6.2-24.1 8.6-10 2.6-8.7 2.4-22 4.1-6.8.9-27.8.9-34.5 0-10.2-1.3-13.7-1.9-21.5-4.1-3.3-.9-6.7-1.8-7.5-2-2.3-.5-14.7-5.3-17.2-6.6-1.3-.7-3-1.6-3.8-2-34.5-17.6-59.4-45.9-75.1-85.1-3.8-9.5-9.4-27.8-10.5-34.3-.2-1.7-.7-3.8-1-4.7-.6-2.2-1.1-4.4-1.8-9.8-.3-2.5-.8-5.6-1.1-7-3.2-16.1-2.6-69.4 1-89 .3-1.4.7-4.5 1-7s.8-5.3 1.1-6.2.7-2.7.9-4c2.5-12.9 6.4-29.4 9.2-38.3 3.3-10.8 10.6-32.1 11.3-33 .4-.6 1.1-2.1 1.5-3.5 1.1-3.8 6-15.1 12.6-28.9 3.2-6.8 5.9-12.7 5.9-13.2s.3-.9.8-.9c.4 0 1.4-1.5 2.1-3.3 5.5-12.3 32-53.4 44.8-69.2 3.8-4.7 10-12.2 10.8-13.1.5-.6 3-3.5 5.5-6.4 4.7-5.7 28.7-29.9 35.7-36.2 4-3.6 16.3-13.8 21.1-17.5 1.3-1 3.3-2.6 4.5-3.7 1.2-1 4-3.1 6.2-4.5 2.3-1.4 4.7-3.2 5.5-3.9 3.2-2.7 21.7-14.2 29.3-18.2 2.6-1.4 4.7-2.8 4.7-3.2 0-.5.9-.8 1.9-.8 1.1 0 2.1-.4 2.3-.8.4-1.1 20.3-10.3 33.3-15.3 10.9-4.3 35.2-11.5 41.8-12.5 2.3-.3 5.2-.7 6.4-.9 1.1-.2 2.9-.5 4-.8 1-.3 5-.9 8.8-1.2 3.9-.4 7.1-.8 7.3-.9.5-.5 31.6.2 36.7.8z"/></svg>