<?xml version="1.0" encoding="utf-8"?>
<!-- Generator: Adobe Illustrator 21.0.2, SVG Export Plug-In . SVG Version: 6.00 Build 0)  -->
<svg version="1.1" id="Layer_1" xmlns="http://www.w3.org/2000/svg" xmlns:xlink="http://www.w3.org/1999/xlink" x="0px" y="0px"
	 viewBox="0 0 103.6 52.5" style="enable-background:new 0 0 103.6 52.5;" xml:space="preserve">
<style type="text/css">
	.st0{fill:#181818;}
</style>
<g>
	<path class="st0" d="M61.9,33.5l-2,8.1c-0.1,0.2,0,0.5,0.2,0.7c0.1,0.1,0.3,0.2,0.5,0.2c0.1,0,0.1,0,0.2,0l8.2-2
		c0.2-0.1,0.4-0.2,0.5-0.5c0.1-0.2,0-0.5-0.2-0.7l-6.2-6.1C62.9,33,62.7,33,62.4,33C62.2,33.2,62,33.2,61.9,33.5z M63,35l4.4,4.4
		l-5.8,1.5L63,35z"/>
	<path class="st0" d="M81.4,15l1.8-1.8c0.2-0.2,0.4-0.3,0.7-0.3l0,0c0.3,0,0.5,0.1,0.7,0.3l4.8,4.8c0.4,0.4,0.4,1,0,1.3L87.6,21
		c-0.3,0.3-0.3,0.7,0,1c0.1,0.1,0.3,0.2,0.5,0.2s0.4-0.1,0.5-0.2l1.8-1.8c0.9-0.9,0.9-2.4,0-3.3l-4.8-4.7c-0.4-0.4-1-0.7-1.6-0.7
		l0,0c-0.6,0-1.2,0.2-1.7,0.7L80.5,14c-0.3,0.3-0.3,0.7,0,1C80.7,15.2,81.1,15.2,81.4,15z"/>
	<path class="st0" d="M78.8,15.5L64.7,29.7c-0.5,0.5-0.7,1.1-0.7,1.7c0,0.6,0.3,1.3,0.7,1.7l0.2,0.2c0.4,0.4,0.9,0.6,1.5,0.7
		c0.1,0.5,0.3,1.1,0.7,1.4l0.2,0.2c0.4,0.4,0.9,0.6,1.5,0.7c0.1,0.5,0.3,1.1,0.7,1.5l0.2,0.2c0.5,0.5,1.1,0.7,1.7,0.7
		c0.6,0,1.2-0.2,1.7-0.7l13.8-14.2c0.1-0.1,0.2-0.3,0.2-0.5c0-0.4,0-0.4-7.4-7.7C79.5,15.2,79.1,15.2,78.8,15.5z M85.5,23.2
		L71.8,36.8c-0.4,0.4-1.1,0.4-1.4,0l-0.2-0.2c-0.3-0.3-0.4-0.6-0.2-1c0.1-0.2,0-0.5-0.2-0.7c-0.1-0.2-0.3-0.2-0.5-0.2
		c-0.1,0-0.1,0-0.2,0c-0.4,0.1-0.8,0-1-0.2l-0.2-0.2c-0.3-0.3-0.3-0.6-0.2-1c0.1-0.2,0-0.5-0.2-0.7c-0.2-0.2-0.5-0.2-0.7-0.2
		c-0.4,0.1-0.8,0-1-0.2L65.6,32c-0.2-0.2-0.3-0.4-0.3-0.7s0.1-0.5,0.3-0.7L79.2,17C81.5,19.2,84.4,22,85.5,23.2z"/>
	<path class="st0" d="M69.5,8.2c0-1.7-1.3-3-3-3c-1.7,0-3,1.3-3,3s1.3,3,3,3C68.1,11.2,69.5,9.8,69.5,8.2z M64.9,8.2
		c0-0.9,0.7-1.6,1.6-1.6s1.6,0.7,1.6,1.6s-0.7,1.6-1.6,1.6C65.6,9.8,64.9,9.1,64.9,8.2z"/>
	<path class="st0" d="M79,33.8c-0.4,0-0.7,0.3-0.7,0.7v14.3c0,0.6-0.5,1-1,1H26.4c-0.6,0-1-0.5-1-1V4c0-0.6,0.5-1,1-1h50.8
		c0.6,0,1,0.5,1,1v8.6c0,0.4,0.3,0.7,0.7,0.7s0.7-0.3,0.7-0.7V4c0-1.3-1.1-2.4-2.4-2.4H26.4C25.1,1.6,24,2.7,24,4v44.8
		c0,1.3,1.1,2.4,2.4,2.4h50.8c1.3,0,2.4-1.1,2.4-2.4V34.5C79.7,34,79.4,33.8,79,33.8z"/>
	<path class="st0" d="M28.2,47.8h47.4c0.4,0,0.7-0.3,0.7-0.7V38c0-0.4-0.3-0.7-0.7-0.7s-0.7,0.3-0.7,0.7v8.4H49.4v-0.1l-1.8-1
		c0.2-0.5,0.3-1.1,0.4-1.7h2c1,0,1.8-0.8,1.8-1.8v-4.4c0-0.5-0.2-0.9-0.5-1.3c-0.3-0.3-0.8-0.5-1.3-0.5h-2.1
		c-0.1-0.6-0.3-1.1-0.5-1.7l1.7-1c0.4-0.2,0.7-0.6,0.8-1.1s0.1-0.9-0.2-1.4l-2.2-3.8c-0.2-0.4-0.6-0.7-1.1-0.8c-0.3,0-0.8,0-1.2,0.3
		l-1.8,1c-0.4-0.4-0.8-0.8-1.2-1.2l1-1.7c0.5-0.9,0.2-2-0.7-2.5l-3.8-2.2c-0.9-0.5-2-0.2-2.4,0.7l-1,1.8c-0.5-0.2-1.1-0.3-1.7-0.4
		v-1.9c0-1-0.8-1.8-1.8-1.8h-2.9V15h46v1c0,0.4,0.3,0.7,0.7,0.7s0.7-0.3,0.7-0.7v-1.7c0-0.4-0.3-0.7-0.7-0.7H28.2
		c-0.4,0-0.7,0.3-0.7,0.7V47C27.5,47.3,27.8,47.8,28.2,47.8z M28.9,27c0.3,0,0.7,0,1,0c7.1,0,12.8,5.7,12.8,12.8
		c0,2.2-0.6,4.4-1.7,6.4l0.2,0.1H28.9V27z M31.8,19.2c0.2,0,0.4,0.2,0.4,0.4v2.5c0,0.3,0.2,0.6,0.6,0.7c0.9,0.2,1.8,0.4,2.6,0.7
		c0.3,0.1,0.7,0,0.8-0.3l1.3-2.3c0.1-0.2,0.4-0.3,0.5-0.1l3.8,2.2c0.2,0.1,0.3,0.4,0.2,0.5l-1.3,2.2c-0.2,0.3-0.1,0.7,0.2,0.9
		c0.7,0.6,1.3,1.2,1.9,1.9c0.2,0.3,0.6,0.3,0.9,0.1l2.3-1.3c0.1-0.1,0.2-0.1,0.3,0c0.1,0,0.2,0.1,0.2,0.2l2.2,3.8
		c0.1,0.1,0.1,0.2,0,0.3c0,0.1-0.1,0.2-0.2,0.2l-2.2,1.3c-0.3,0.2-0.4,0.5-0.3,0.8c0.3,0.8,0.6,1.7,0.7,2.6c0.1,0.3,0.4,0.6,0.7,0.6
		H50c0.1,0,0.2,0,0.3,0.1s0.1,0.2,0.1,0.3v4.3c0,0.2-0.2,0.4-0.4,0.4h-2.5c-0.3,0-0.6,0.2-0.7,0.6c-0.1,0.9-0.4,1.7-0.7,2.6
		c-0.1,0.3,0,0.7,0.3,0.8l0.3,0.2h-4.3c1-2,1.6-4.2,1.6-6.5c0-7.8-6.4-14.2-14.2-14.2c-0.3,0-0.6,0-1,0v-6.5
		C28.8,19.1,31.8,19.1,31.8,19.2z"/>
	<path class="st0" d="M62.7,8.2c0-1.7-1.3-3-3-3s-3,1.3-3,3s1.3,3,3,3S62.7,9.8,62.7,8.2z M58.1,8.2c0-0.9,0.7-1.6,1.6-1.6
		c0.9,0,1.6,0.7,1.6,1.6s-0.7,1.6-1.6,1.6C58.9,9.8,58.1,9.1,58.1,8.2z"/>
	<path class="st0" d="M76.2,8.2c0-1.7-1.3-3-3-3c-1.7,0-3,1.3-3,3s1.3,3,3,3C74.9,11.2,76.2,9.8,76.2,8.2z M71.6,8.2
		c0-0.9,0.7-1.6,1.6-1.6c0.9,0,1.6,0.7,1.6,1.6s-0.7,1.6-1.6,1.6C72.4,9.8,71.6,9.1,71.6,8.2z"/>
	<path class="st0" d="M101.5,25.3h-2.1v-2.1c0-0.4-0.3-0.7-0.7-0.7S98,22.8,98,23.2v2.1h-2.1c-0.4,0-0.7,0.3-0.7,0.7
		s0.3,0.7,0.7,0.7H98v2.1c0,0.4,0.3,0.7,0.7,0.7s0.7-0.3,0.7-0.7v-2.1h2.1c0.4,0,0.7-0.3,0.7-0.7S101.9,25.3,101.5,25.3z"/>
	<path class="st0" d="M96.7,35h-3.9v-3.9c0-0.4-0.3-0.7-0.7-0.7h-3.6l0,0c-0.2,0-0.4,0.1-0.5,0.2s-0.2,0.3-0.2,0.5V35h-3.9l0,0
		c-0.2,0-0.4,0.1-0.5,0.2c-0.2,0.2-0.3,0.4-0.3,0.5v3.6c0,0.4,0.3,0.7,0.7,0.7h3.9v4c0,0.4,0.3,0.7,0.7,0.7h3.7
		c0.4,0,0.7-0.3,0.7-0.7v-4h3.9c0.4,0,0.7-0.3,0.7-0.7v-3.6C97.4,35.5,97.1,35,96.7,35z M96,38.7h-3.9c-0.4,0-0.7,0.3-0.7,0.7v4
		h-2.2v-4c0-0.4-0.3-0.7-0.7-0.7h-3.9v-2.2h3.9l0,0c0.2,0,0.4-0.1,0.5-0.2c0.1-0.1,0.2-0.3,0.2-0.5v-3.9h2.2v3.9
		c0,0.4,0.3,0.7,0.7,0.7H96C96,36.5,96,38.7,96,38.7z"/>
	<path class="st0" d="M28,9h4.2c0.4,0,0.7-0.3,0.7-0.7s-0.3-0.8-0.7-0.8H28c-0.4,0-0.7,0.3-0.7,0.7S27.6,9,28,9z"/>
	<path class="st0" d="M54.4,9c0.4,0,0.7-0.3,0.7-0.7s-0.3-0.7-0.7-0.7H35.3c-0.4,0-0.7,0.3-0.7,0.7S34.9,9,35.3,9H54.4z"/>
</g>
</svg>
