<?xml version="1.0" encoding="utf-8"?>
<!-- Generator: Adobe Illustrator 21.0.2, SVG Export Plug-In . SVG Version: 6.00 Build 0)  -->
<svg version="1.1" id="Layer_1" xmlns="http://www.w3.org/2000/svg" xmlns:xlink="http://www.w3.org/1999/xlink" x="0px" y="0px"
	 viewBox="0 0 68 68.7" style="enable-background:new 0 0 68 68.7;" xml:space="preserve">
<style type="text/css">
	.st0{fill:#181818;}
</style>
<g>
	<g>
		<g>
			<path class="st0" d="M63.7,28.5c-1.8,0-3.3,1.5-3.3,3.3v10L59,43.3c-0.2-0.5-0.5-1-0.9-1.4H58c-1.4-1.3-3.6-1.1-4.8,0.3l-5.7,7.2
				c-0.5,0.7-0.7,1.5-0.7,2.3V58h-1c-0.6,0-1.2,0.5-1.2,1.2v6.7c0,0.6,0.5,1.2,1.2,1.2H61c0.6,0,1.2-0.5,1.2-1.2v-6.7
				c0-0.6-0.5-1.2-1.2-1.2h-1.4v-1.6c0-0.5,0.1-1,0.4-1.4l6.5-8.9c0.3-0.4,0.4-1,0.4-1.5V31.8C67,30,65.5,28.5,63.7,28.5z M60.2,65
				H46.7v-5h13.5V65z M65,44.6c0,0.1,0,0.3-0.1,0.4l-6.5,8.9c-0.5,0.8-0.7,1.6-0.7,2.5V58h-8.8v-6.2c0-0.4,0.1-0.8,0.3-1.1l5.6-7.1
				c0.4-0.6,1.3-0.6,1.8-0.1l0.1,0.1c0.7,0.6,0.7,1.7,0.1,2.4l-1,1.2c-0.4,0.4-0.3,1,0.1,1.4c0.4,0.4,1,0.3,1.4-0.1l4.7-5.4
				c0.2-0.2,0.3-0.5,0.3-0.7V31.8c0-0.7,0.6-1.3,1.3-1.3s1.3,0.6,1.3,1.3v12.8H65z"/>
		</g>
	</g>
	<g>
		<g>
			<path class="st0" d="M22.1,58h-1v-6.2c0-0.8-0.3-1.6-0.8-2.4l-5.6-7.1c-1.2-1.5-3.4-1.6-4.8-0.3l0,0c-0.4,0.4-0.7,0.9-0.9,1.4
				l-1.3-1.5v-10c0-1.8-1.5-3.3-3.3-3.3C2.5,28.5,1,30,1,31.9v12.8c0,0.5,0.2,1,0.5,1.5L7.9,55c0.3,0.4,0.4,0.9,0.4,1.5V58H6.9
				c-0.6,0-1.2,0.5-1.2,1.2v6.7c0,0.6,0.5,1.2,1.2,1.2h15.2c0.6,0,1.2-0.5,1.2-1.2v-6.7C23.3,58.5,22.8,58,22.1,58z M9.5,53.8
				L3.1,45C3,44.9,3,44.8,3,44.6V31.9c0-0.7,0.6-1.3,1.3-1.3s1.3,0.6,1.3,1.3v10.3c0,0.2,0.1,0.6,0.3,0.7l4.7,5.4
				c0.4,0.4,1,0.5,1.4,0.1s0.5-1,0.1-1.4l-1-1.2c-0.6-0.7-0.5-1.8,0.1-2.4l0.1-0.1c0.5-0.5,1.4-0.4,1.8,0.1l5.6,7.1
				c0.2,0.3,0.4,0.8,0.4,1.2V58h-8.8v-1.6C10.3,55.5,10,54.6,9.5,53.8z M21.3,65H7.8v-5h13.5V65z"/>
		</g>
	</g>
	<g>
		<g>
			<path class="st0" d="M44.8,52c0.3-0.3,0.5-0.7,0.5-1.1v-7c0-0.9-0.7-1.6-1.6-1.6h-1.9c0.4-4,2.1-7.8,4.9-10.8
				c3.2-3.4,4.9-7.9,4.9-12.6C51.6,8.7,43.1,0.4,32.9,1c-8.7,0.5-15.8,7.6-16.5,16.4c-0.5,5.3,1.4,10.6,5,14.4c2.9,3,4.6,6.8,5,10.7
				h-1.9c-0.9,0-1.6,0.7-1.6,1.6v7c0,0.9,0.7,1.6,1.6,1.6l0,0H29l0,0v2.5h-2.1c-0.6,0-1,0.5-1,1c0,0.6,0.5,1,1,1l0,0H29
				c0.3,2,1.9,3.5,3.9,3.5l0,0h2.3c2,0,3.6-1.5,3.9-3.5h2.1c0.6,0,1-0.5,1-1c0-0.6-0.4-1-1-1h-2.1v-2.5l0,0h4.5
				C44.1,52.5,44.5,52.3,44.8,52z M35.3,58.6H33c-1.1,0-1.9-0.9-1.9-2v-4h6.2v4C37.3,57.7,36.4,58.6,35.3,58.6z M22.9,30.4
				c-3.3-3.4-4.9-8-4.5-12.8c0.7-7.8,7-14.1,14.7-14.5c0.3,0,0.6,0,0.9,0c8.6,0,15.6,7.2,15.7,16c0,4.2-1.5,8.2-4.4,11.2
				c-3.2,3.4-5.1,7.7-5.5,12.2h-4.6V31.7h0.4c0.5,0,0.9-0.4,1-0.9l0.3-2.2c0.9-0.2,1.8-0.6,2.6-1.1l1.7,1.3c0.4,0.3,1,0.2,1.4-0.1
				l1.9-1.9c0.4-0.4,0.4-0.9,0.1-1.3l-1.4-1.8c0.5-0.8,0.8-1.7,1.1-2.6l2.2-0.3c0.5-0.1,0.9-0.5,0.9-1v-2.7c0-0.5-0.4-0.9-0.9-1
				l-2.2-0.3c-0.2-0.9-0.6-1.8-1.1-2.6l1.3-1.7c0.3-0.4,0.3-1-0.1-1.4l-1.9-1.9c-0.4-0.4-0.9-0.4-1.3-0.1l-1.8,1.4
				c-0.8-0.5-1.7-0.8-2.6-1.1l-0.3-2.2c-0.1-0.5-0.5-0.9-1-0.9h-2.7c-0.5,0-0.9,0.4-1,0.9l-0.3,2.2C30.6,8.7,29.8,9,29,9.5l-1.8-1.4
				c-0.4-0.3-1-0.3-1.3,0.1l-1.9,2c-0.4,0.4-0.4,0.9-0.1,1.3l1.4,1.8c-0.5,0.8-0.8,1.7-1.1,2.6L22,16.1c-0.5,0.1-0.9,0.5-0.9,1v2.7
				c0,0.5,0.4,0.9,0.9,1l2.2,0.3c0.2,0.9,0.6,1.8,1.1,2.6l-1.4,1.8c-0.3,0.4-0.3,1,0.1,1.3l1.9,1.9c0.4,0.4,0.9,0.4,1.3,0.1l1.8-1.4
				c0.8,0.5,1.7,0.8,2.6,1.1l0.3,2.2c0.1,0.5,0.5,0.9,1,0.9h0.4v10.8h-4.7C28.1,38,26.1,33.7,22.9,30.4z M27.2,23.2
				c-0.6-0.9-1.1-2-1.3-3.1c-0.1-0.4-0.4-0.7-0.8-0.8l-2-0.3v-1l2-0.3c0.4-0.1,0.8-0.4,0.8-0.8c0.2-1.1,0.7-2.2,1.3-3.2
				c0.2-0.4,0.2-0.8,0-1.2L26,11l0.7-0.7l1.6,1.2c0.3,0.3,0.9,0.3,1.2,0c0.9-0.6,2-1.1,3.1-1.3c0.4-0.1,0.7-0.4,0.8-0.9l0.3-2h1
				l0.3,2c0.1,0.4,0.4,0.8,0.8,0.9c1.1,0.2,2.2,0.7,3.1,1.3c0.4,0.2,0.8,0.2,1.2,0l1.6-1.2l0.7,0.7l-1.2,1.6c-0.3,0.3-0.3,0.8,0,1.2
				c0.6,1,1.1,2,1.3,3.2c0.1,0.4,0.4,0.7,0.8,0.8l2,0.3v1l-2,0.3c-0.4,0.1-0.8,0.4-0.8,0.8c-0.2,1.1-0.7,2.2-1.3,3.2
				c-0.2,0.4-0.2,0.8,0,1.2l1.2,1.6l-0.7,0.7L40,25.5c-0.3-0.3-0.8-0.3-1.2,0c-0.9,0.6-2,1.1-3.1,1.3c-0.4,0.1-0.7,0.4-0.8,0.9
				l-0.3,2h-1l-0.3-2c-0.1-0.4-0.4-0.8-0.8-0.9c-1.1-0.2-2.2-0.7-3.1-1.3c-0.4-0.2-0.8-0.2-1.2,0l-1.6,1.2L26,26l1.2-1.6
				C27.5,24.1,27.5,23.6,27.2,23.2z M25,50.6v-6.1c5.3,0,12.6-0.1,18.3-0.1v6.1C32.7,50.6,35.6,50.6,25,50.6z"/>
		</g>
	</g>
	<g>
		<g>
			<path class="st0" d="M34.2,24.4c3.2,0,5.8-2.6,5.8-5.8s-2.6-5.8-5.8-5.8s-5.8,2.6-5.8,5.8S31,24.4,34.2,24.4z M34.2,14.7
				c2.1,0,3.8,1.7,3.8,3.8s-1.7,3.8-3.8,3.8s-3.8-1.7-3.8-3.8C30.4,16.4,32.1,14.7,34.2,14.7z"/>
		</g>
	</g>
</g>
</svg>
